<mxfile host="65bd71144e">
    <diagram id="jXbxCuHvPVK1Lks2njKv" name="Page-1">
        <mxGraphModel dx="3026" dy="450" grid="1" gridSize="10" guides="1" tooltips="1" connect="1" arrows="1" fold="1" page="1" pageScale="1" pageWidth="2000" pageHeight="2000" math="0" shadow="0">
            <root>
                <mxCell id="0"/>
                <mxCell id="1" parent="0"/>
                <mxCell id="20" value="input" style="shape=folder;fontStyle=1;tabWidth=110;tabHeight=30;tabPosition=left;html=1;boundedLbl=1;labelInHeader=1;container=1;collapsible=0;" parent="1" vertex="1">
                    <mxGeometry x="-380" y="170" width="530" height="400" as="geometry"/>
                </mxCell>
                <mxCell id="21" value="" style="html=1;strokeColor=none;resizeWidth=1;resizeHeight=1;fillColor=none;part=1;connectable=0;allowArrows=0;deletable=0;" parent="20" vertex="1">
                    <mxGeometry width="530" height="280" relative="1" as="geometry">
                        <mxPoint y="30" as="offset"/>
                    </mxGeometry>
                </mxCell>
                <mxCell id="6" value="Input" style="swimlane;fontStyle=1;align=center;verticalAlign=top;childLayout=stackLayout;horizontal=1;startSize=26;horizontalStack=0;resizeParent=1;resizeParentMax=0;resizeLast=0;collapsible=1;marginBottom=0;" parent="20" vertex="1">
                    <mxGeometry x="210" y="62" width="160" height="86" as="geometry"/>
                </mxCell>
                <mxCell id="7" value="+ field: type" style="text;strokeColor=none;fillColor=none;align=left;verticalAlign=top;spacingLeft=4;spacingRight=4;overflow=hidden;rotatable=0;points=[[0,0.5],[1,0.5]];portConstraint=eastwest;" parent="6" vertex="1">
                    <mxGeometry y="26" width="160" height="26" as="geometry"/>
                </mxCell>
                <mxCell id="8" value="" style="line;strokeWidth=1;fillColor=none;align=left;verticalAlign=middle;spacingTop=-1;spacingLeft=3;spacingRight=3;rotatable=0;labelPosition=right;points=[];portConstraint=eastwest;strokeColor=inherit;" parent="6" vertex="1">
                    <mxGeometry y="52" width="160" height="8" as="geometry"/>
                </mxCell>
                <mxCell id="9" value="+ method(type): type" style="text;strokeColor=none;fillColor=none;align=left;verticalAlign=top;spacingLeft=4;spacingRight=4;overflow=hidden;rotatable=0;points=[[0,0.5],[1,0.5]];portConstraint=eastwest;" parent="6" vertex="1">
                    <mxGeometry y="60" width="160" height="26" as="geometry"/>
                </mxCell>
                <mxCell id="10" value="TXTinput" style="swimlane;fontStyle=1;align=center;verticalAlign=top;childLayout=stackLayout;horizontal=1;startSize=26;horizontalStack=0;resizeParent=1;resizeParentMax=0;resizeLast=0;collapsible=1;marginBottom=0;" parent="20" vertex="1">
                    <mxGeometry x="290" y="240" width="160" height="86" as="geometry"/>
                </mxCell>
                <mxCell id="11" value="+ field: type" style="text;strokeColor=none;fillColor=none;align=left;verticalAlign=top;spacingLeft=4;spacingRight=4;overflow=hidden;rotatable=0;points=[[0,0.5],[1,0.5]];portConstraint=eastwest;" parent="10" vertex="1">
                    <mxGeometry y="26" width="160" height="26" as="geometry"/>
                </mxCell>
                <mxCell id="12" value="" style="line;strokeWidth=1;fillColor=none;align=left;verticalAlign=middle;spacingTop=-1;spacingLeft=3;spacingRight=3;rotatable=0;labelPosition=right;points=[];portConstraint=eastwest;strokeColor=inherit;" parent="10" vertex="1">
                    <mxGeometry y="52" width="160" height="8" as="geometry"/>
                </mxCell>
                <mxCell id="13" value="+ method(type): type" style="text;strokeColor=none;fillColor=none;align=left;verticalAlign=top;spacingLeft=4;spacingRight=4;overflow=hidden;rotatable=0;points=[[0,0.5],[1,0.5]];portConstraint=eastwest;" parent="10" vertex="1">
                    <mxGeometry y="60" width="160" height="26" as="geometry"/>
                </mxCell>
                <mxCell id="14" value="XMLinput" style="swimlane;fontStyle=1;align=center;verticalAlign=top;childLayout=stackLayout;horizontal=1;startSize=26;horizontalStack=0;resizeParent=1;resizeParentMax=0;resizeLast=0;collapsible=1;marginBottom=0;" parent="20" vertex="1">
                    <mxGeometry x="110" y="240" width="160" height="86" as="geometry"/>
                </mxCell>
                <mxCell id="15" value="+ field: type" style="text;strokeColor=none;fillColor=none;align=left;verticalAlign=top;spacingLeft=4;spacingRight=4;overflow=hidden;rotatable=0;points=[[0,0.5],[1,0.5]];portConstraint=eastwest;" parent="14" vertex="1">
                    <mxGeometry y="26" width="160" height="26" as="geometry"/>
                </mxCell>
                <mxCell id="16" value="" style="line;strokeWidth=1;fillColor=none;align=left;verticalAlign=middle;spacingTop=-1;spacingLeft=3;spacingRight=3;rotatable=0;labelPosition=right;points=[];portConstraint=eastwest;strokeColor=inherit;" parent="14" vertex="1">
                    <mxGeometry y="52" width="160" height="8" as="geometry"/>
                </mxCell>
                <mxCell id="17" value="+ method(type): type" style="text;strokeColor=none;fillColor=none;align=left;verticalAlign=top;spacingLeft=4;spacingRight=4;overflow=hidden;rotatable=0;points=[[0,0.5],[1,0.5]];portConstraint=eastwest;" parent="14" vertex="1">
                    <mxGeometry y="60" width="160" height="26" as="geometry"/>
                </mxCell>
                <mxCell id="18" value="Extends" style="endArrow=block;endSize=16;endFill=0;html=1;entryX=0.55;entryY=1.133;entryDx=0;entryDy=0;entryPerimeter=0;exitX=0.5;exitY=0;exitDx=0;exitDy=0;" parent="20" source="10" target="9" edge="1">
                    <mxGeometry width="160" relative="1" as="geometry">
                        <mxPoint x="390" y="222" as="sourcePoint"/>
                        <mxPoint x="540" y="252" as="targetPoint"/>
                    </mxGeometry>
                </mxCell>
                <mxCell id="19" value="Extends" style="endArrow=block;endSize=16;endFill=0;html=1;entryX=0.324;entryY=1.107;entryDx=0;entryDy=0;entryPerimeter=0;exitX=0.5;exitY=0;exitDx=0;exitDy=0;" parent="20" source="14" target="9" edge="1">
                    <mxGeometry width="160" relative="1" as="geometry">
                        <mxPoint x="380" y="252" as="sourcePoint"/>
                        <mxPoint x="540" y="252" as="targetPoint"/>
                    </mxGeometry>
                </mxCell>
                <mxCell id="40" value="output" style="shape=folder;fontStyle=1;tabWidth=110;tabHeight=30;tabPosition=left;html=1;boundedLbl=1;labelInHeader=1;container=1;collapsible=0;" parent="1" vertex="1">
                    <mxGeometry x="-520" y="860" width="670" height="410" as="geometry"/>
                </mxCell>
                <mxCell id="41" value="" style="html=1;strokeColor=none;resizeWidth=1;resizeHeight=1;fillColor=none;part=1;connectable=0;allowArrows=0;deletable=0;" parent="40" vertex="1">
                    <mxGeometry width="670" height="287" relative="1" as="geometry">
                        <mxPoint y="30" as="offset"/>
                    </mxGeometry>
                </mxCell>
                <mxCell id="25" value="Report" style="swimlane;fontStyle=1;align=center;verticalAlign=top;childLayout=stackLayout;horizontal=1;startSize=26;horizontalStack=0;resizeParent=1;resizeParentMax=0;resizeLast=0;collapsible=1;marginBottom=0;" parent="40" vertex="1">
                    <mxGeometry x="245" y="70" width="160" height="86" as="geometry"/>
                </mxCell>
                <mxCell id="26" value="+ field: type" style="text;strokeColor=none;fillColor=none;align=left;verticalAlign=top;spacingLeft=4;spacingRight=4;overflow=hidden;rotatable=0;points=[[0,0.5],[1,0.5]];portConstraint=eastwest;" parent="25" vertex="1">
                    <mxGeometry y="26" width="160" height="26" as="geometry"/>
                </mxCell>
                <mxCell id="27" value="" style="line;strokeWidth=1;fillColor=none;align=left;verticalAlign=middle;spacingTop=-1;spacingLeft=3;spacingRight=3;rotatable=0;labelPosition=right;points=[];portConstraint=eastwest;strokeColor=inherit;" parent="25" vertex="1">
                    <mxGeometry y="52" width="160" height="8" as="geometry"/>
                </mxCell>
                <mxCell id="28" value="+ method(type): type" style="text;strokeColor=none;fillColor=none;align=left;verticalAlign=top;spacingLeft=4;spacingRight=4;overflow=hidden;rotatable=0;points=[[0,0.5],[1,0.5]];portConstraint=eastwest;" parent="25" vertex="1">
                    <mxGeometry y="60" width="160" height="26" as="geometry"/>
                </mxCell>
                <mxCell id="29" value="XMLReport" style="swimlane;fontStyle=1;align=center;verticalAlign=top;childLayout=stackLayout;horizontal=1;startSize=26;horizontalStack=0;resizeParent=1;resizeParentMax=0;resizeLast=0;collapsible=1;marginBottom=0;" parent="40" vertex="1">
                    <mxGeometry x="385" y="264" width="160" height="86" as="geometry"/>
                </mxCell>
                <mxCell id="30" value="+ field: type" style="text;strokeColor=none;fillColor=none;align=left;verticalAlign=top;spacingLeft=4;spacingRight=4;overflow=hidden;rotatable=0;points=[[0,0.5],[1,0.5]];portConstraint=eastwest;" parent="29" vertex="1">
                    <mxGeometry y="26" width="160" height="26" as="geometry"/>
                </mxCell>
                <mxCell id="31" value="" style="line;strokeWidth=1;fillColor=none;align=left;verticalAlign=middle;spacingTop=-1;spacingLeft=3;spacingRight=3;rotatable=0;labelPosition=right;points=[];portConstraint=eastwest;strokeColor=inherit;" parent="29" vertex="1">
                    <mxGeometry y="52" width="160" height="8" as="geometry"/>
                </mxCell>
                <mxCell id="32" value="+ method(type): type" style="text;strokeColor=none;fillColor=none;align=left;verticalAlign=top;spacingLeft=4;spacingRight=4;overflow=hidden;rotatable=0;points=[[0,0.5],[1,0.5]];portConstraint=eastwest;" parent="29" vertex="1">
                    <mxGeometry y="60" width="160" height="26" as="geometry"/>
                </mxCell>
                <mxCell id="33" value="TXTReport" style="swimlane;fontStyle=1;align=center;verticalAlign=top;childLayout=stackLayout;horizontal=1;startSize=26;horizontalStack=0;resizeParent=1;resizeParentMax=0;resizeLast=0;collapsible=1;marginBottom=0;" parent="40" vertex="1">
                    <mxGeometry x="125" y="264" width="160" height="86" as="geometry"/>
                </mxCell>
                <mxCell id="34" value="+ field: type" style="text;strokeColor=none;fillColor=none;align=left;verticalAlign=top;spacingLeft=4;spacingRight=4;overflow=hidden;rotatable=0;points=[[0,0.5],[1,0.5]];portConstraint=eastwest;" parent="33" vertex="1">
                    <mxGeometry y="26" width="160" height="26" as="geometry"/>
                </mxCell>
                <mxCell id="35" value="" style="line;strokeWidth=1;fillColor=none;align=left;verticalAlign=middle;spacingTop=-1;spacingLeft=3;spacingRight=3;rotatable=0;labelPosition=right;points=[];portConstraint=eastwest;strokeColor=inherit;" parent="33" vertex="1">
                    <mxGeometry y="52" width="160" height="8" as="geometry"/>
                </mxCell>
                <mxCell id="36" value="+ method(type): type" style="text;strokeColor=none;fillColor=none;align=left;verticalAlign=top;spacingLeft=4;spacingRight=4;overflow=hidden;rotatable=0;points=[[0,0.5],[1,0.5]];portConstraint=eastwest;" parent="33" vertex="1">
                    <mxGeometry y="60" width="160" height="26" as="geometry"/>
                </mxCell>
                <mxCell id="37" value="Extends" style="endArrow=block;endSize=16;endFill=0;html=1;exitX=0.5;exitY=0;exitDx=0;exitDy=0;entryX=0.348;entryY=1.147;entryDx=0;entryDy=0;entryPerimeter=0;" parent="40" source="33" target="28" edge="1">
                    <mxGeometry width="160" relative="1" as="geometry">
                        <mxPoint x="325" y="180" as="sourcePoint"/>
                        <mxPoint x="485" y="180" as="targetPoint"/>
                    </mxGeometry>
                </mxCell>
                <mxCell id="38" value="Extends" style="endArrow=block;endSize=16;endFill=0;html=1;exitX=0.463;exitY=0;exitDx=0;exitDy=0;exitPerimeter=0;entryX=0.608;entryY=1.171;entryDx=0;entryDy=0;entryPerimeter=0;" parent="40" source="29" target="28" edge="1">
                    <mxGeometry width="160" relative="1" as="geometry">
                        <mxPoint x="325" y="180" as="sourcePoint"/>
                        <mxPoint x="485" y="180" as="targetPoint"/>
                    </mxGeometry>
                </mxCell>
                <mxCell id="42" value="data" style="shape=folder;fontStyle=1;tabWidth=110;tabHeight=30;tabPosition=left;html=1;boundedLbl=1;labelInHeader=1;container=1;collapsible=0;" parent="1" vertex="1">
                    <mxGeometry x="530" y="860" width="930" height="640" as="geometry"/>
                </mxCell>
                <mxCell id="43" value="" style="html=1;strokeColor=none;resizeWidth=1;resizeHeight=1;fillColor=none;part=1;connectable=0;allowArrows=0;deletable=0;" parent="42" vertex="1">
                    <mxGeometry width="883.5" height="330" relative="1" as="geometry">
                        <mxPoint y="120" as="offset"/>
                    </mxGeometry>
                </mxCell>
                <mxCell id="47" value="Receipt" style="swimlane;fontStyle=1;align=center;verticalAlign=top;childLayout=stackLayout;horizontal=1;startSize=26;horizontalStack=0;resizeParent=1;resizeParentMax=0;resizeLast=0;collapsible=1;marginBottom=0;" parent="42" vertex="1">
                    <mxGeometry x="381.3" y="46" width="148.8" height="86" as="geometry"/>
                </mxCell>
                <mxCell id="48" value="+ field: type" style="text;strokeColor=none;fillColor=none;align=left;verticalAlign=top;spacingLeft=4;spacingRight=4;overflow=hidden;rotatable=0;points=[[0,0.5],[1,0.5]];portConstraint=eastwest;" parent="47" vertex="1">
                    <mxGeometry y="26" width="148.8" height="26" as="geometry"/>
                </mxCell>
                <mxCell id="49" value="" style="line;strokeWidth=1;fillColor=none;align=left;verticalAlign=middle;spacingTop=-1;spacingLeft=3;spacingRight=3;rotatable=0;labelPosition=right;points=[];portConstraint=eastwest;strokeColor=inherit;" parent="47" vertex="1">
                    <mxGeometry y="52" width="148.8" height="8" as="geometry"/>
                </mxCell>
                <mxCell id="50" value="+ method(type): type" style="text;strokeColor=none;fillColor=none;align=left;verticalAlign=top;spacingLeft=4;spacingRight=4;overflow=hidden;rotatable=0;points=[[0,0.5],[1,0.5]];portConstraint=eastwest;" parent="47" vertex="1">
                    <mxGeometry y="60" width="148.8" height="26" as="geometry"/>
                </mxCell>
                <mxCell id="51" value="Shirt" style="swimlane;fontStyle=1;align=center;verticalAlign=top;childLayout=stackLayout;horizontal=1;startSize=26;horizontalStack=0;resizeParent=1;resizeParentMax=0;resizeLast=0;collapsible=1;marginBottom=0;" parent="42" vertex="1">
                    <mxGeometry x="139.5" y="250" width="148.8" height="86" as="geometry"/>
                </mxCell>
                <mxCell id="52" value="+ field: type" style="text;strokeColor=none;fillColor=none;align=left;verticalAlign=top;spacingLeft=4;spacingRight=4;overflow=hidden;rotatable=0;points=[[0,0.5],[1,0.5]];portConstraint=eastwest;" parent="51" vertex="1">
                    <mxGeometry y="26" width="148.8" height="26" as="geometry"/>
                </mxCell>
                <mxCell id="53" value="" style="line;strokeWidth=1;fillColor=none;align=left;verticalAlign=middle;spacingTop=-1;spacingLeft=3;spacingRight=3;rotatable=0;labelPosition=right;points=[];portConstraint=eastwest;strokeColor=inherit;" parent="51" vertex="1">
                    <mxGeometry y="52" width="148.8" height="8" as="geometry"/>
                </mxCell>
                <mxCell id="54" value="+ method(type): type" style="text;strokeColor=none;fillColor=none;align=left;verticalAlign=top;spacingLeft=4;spacingRight=4;overflow=hidden;rotatable=0;points=[[0,0.5],[1,0.5]];portConstraint=eastwest;" parent="51" vertex="1">
                    <mxGeometry y="60" width="148.8" height="26" as="geometry"/>
                </mxCell>
                <mxCell id="55" value="Trousers" style="swimlane;fontStyle=1;align=center;verticalAlign=top;childLayout=stackLayout;horizontal=1;startSize=26;horizontalStack=0;resizeParent=1;resizeParentMax=0;resizeLast=0;collapsible=1;marginBottom=0;" parent="42" vertex="1">
                    <mxGeometry x="306.90000000000003" y="250" width="148.8" height="86" as="geometry"/>
                </mxCell>
                <mxCell id="56" value="+ field: type" style="text;strokeColor=none;fillColor=none;align=left;verticalAlign=top;spacingLeft=4;spacingRight=4;overflow=hidden;rotatable=0;points=[[0,0.5],[1,0.5]];portConstraint=eastwest;" parent="55" vertex="1">
                    <mxGeometry y="26" width="148.8" height="26" as="geometry"/>
                </mxCell>
                <mxCell id="57" value="" style="line;strokeWidth=1;fillColor=none;align=left;verticalAlign=middle;spacingTop=-1;spacingLeft=3;spacingRight=3;rotatable=0;labelPosition=right;points=[];portConstraint=eastwest;strokeColor=inherit;" parent="55" vertex="1">
                    <mxGeometry y="52" width="148.8" height="8" as="geometry"/>
                </mxCell>
                <mxCell id="58" value="+ method(type): type" style="text;strokeColor=none;fillColor=none;align=left;verticalAlign=top;spacingLeft=4;spacingRight=4;overflow=hidden;rotatable=0;points=[[0,0.5],[1,0.5]];portConstraint=eastwest;" parent="55" vertex="1">
                    <mxGeometry y="60" width="148.8" height="26" as="geometry"/>
                </mxCell>
                <mxCell id="59" value="Skirt" style="swimlane;fontStyle=1;align=center;verticalAlign=top;childLayout=stackLayout;horizontal=1;startSize=26;horizontalStack=0;resizeParent=1;resizeParentMax=0;resizeLast=0;collapsible=1;marginBottom=0;" parent="42" vertex="1">
                    <mxGeometry x="474.3" y="250" width="148.8" height="86" as="geometry"/>
                </mxCell>
                <mxCell id="60" value="+ field: type" style="text;strokeColor=none;fillColor=none;align=left;verticalAlign=top;spacingLeft=4;spacingRight=4;overflow=hidden;rotatable=0;points=[[0,0.5],[1,0.5]];portConstraint=eastwest;" parent="59" vertex="1">
                    <mxGeometry y="26" width="148.8" height="26" as="geometry"/>
                </mxCell>
                <mxCell id="61" value="" style="line;strokeWidth=1;fillColor=none;align=left;verticalAlign=middle;spacingTop=-1;spacingLeft=3;spacingRight=3;rotatable=0;labelPosition=right;points=[];portConstraint=eastwest;strokeColor=inherit;" parent="59" vertex="1">
                    <mxGeometry y="52" width="148.8" height="8" as="geometry"/>
                </mxCell>
                <mxCell id="62" value="+ method(type): type" style="text;strokeColor=none;fillColor=none;align=left;verticalAlign=top;spacingLeft=4;spacingRight=4;overflow=hidden;rotatable=0;points=[[0,0.5],[1,0.5]];portConstraint=eastwest;" parent="59" vertex="1">
                    <mxGeometry y="60" width="148.8" height="26" as="geometry"/>
                </mxCell>
                <mxCell id="63" value="Coat" style="swimlane;fontStyle=1;align=center;verticalAlign=top;childLayout=stackLayout;horizontal=1;startSize=26;horizontalStack=0;resizeParent=1;resizeParentMax=0;resizeLast=0;collapsible=1;marginBottom=0;" parent="42" vertex="1">
                    <mxGeometry x="641.7" y="250" width="148.8" height="86" as="geometry"/>
                </mxCell>
                <mxCell id="64" value="+ field: type" style="text;strokeColor=none;fillColor=none;align=left;verticalAlign=top;spacingLeft=4;spacingRight=4;overflow=hidden;rotatable=0;points=[[0,0.5],[1,0.5]];portConstraint=eastwest;" parent="63" vertex="1">
                    <mxGeometry y="26" width="148.8" height="26" as="geometry"/>
                </mxCell>
                <mxCell id="65" value="" style="line;strokeWidth=1;fillColor=none;align=left;verticalAlign=middle;spacingTop=-1;spacingLeft=3;spacingRight=3;rotatable=0;labelPosition=right;points=[];portConstraint=eastwest;strokeColor=inherit;" parent="63" vertex="1">
                    <mxGeometry y="52" width="148.8" height="8" as="geometry"/>
                </mxCell>
                <mxCell id="66" value="+ method(type): type" style="text;strokeColor=none;fillColor=none;align=left;verticalAlign=top;spacingLeft=4;spacingRight=4;overflow=hidden;rotatable=0;points=[[0,0.5],[1,0.5]];portConstraint=eastwest;" parent="63" vertex="1">
                    <mxGeometry y="60" width="148.8" height="26" as="geometry"/>
                </mxCell>
                <mxCell id="67" value="Extends" style="endArrow=block;endSize=16;endFill=0;html=1;exitX=0.5;exitY=0;exitDx=0;exitDy=0;" parent="42" source="51" target="47" edge="1">
                    <mxGeometry width="160" relative="1" as="geometry">
                        <mxPoint x="148.8" y="300" as="sourcePoint"/>
                        <mxPoint x="297.6" y="300" as="targetPoint"/>
                    </mxGeometry>
                </mxCell>
                <mxCell id="69" value="Extends" style="endArrow=block;endSize=16;endFill=0;html=1;exitX=0.438;exitY=-0.012;exitDx=0;exitDy=0;exitPerimeter=0;" parent="42" source="55" target="47" edge="1">
                    <mxGeometry width="160" relative="1" as="geometry">
                        <mxPoint x="232.5" y="160" as="sourcePoint"/>
                        <mxPoint x="381.3" y="160" as="targetPoint"/>
                    </mxGeometry>
                </mxCell>
                <mxCell id="70" value="Extends" style="endArrow=block;endSize=16;endFill=0;html=1;" parent="42" source="59" target="47" edge="1">
                    <mxGeometry width="160" relative="1" as="geometry">
                        <mxPoint x="195.3" y="110" as="sourcePoint"/>
                        <mxPoint x="344.1" y="110" as="targetPoint"/>
                    </mxGeometry>
                </mxCell>
                <mxCell id="71" value="Extends" style="endArrow=block;endSize=16;endFill=0;html=1;" parent="42" source="63" target="47" edge="1">
                    <mxGeometry width="160" relative="1" as="geometry">
                        <mxPoint x="204.60000000000002" y="70" as="sourcePoint"/>
                        <mxPoint x="353.40000000000003" y="70" as="targetPoint"/>
                    </mxGeometry>
                </mxCell>
                <mxCell id="72" value="Address" style="swimlane;fontStyle=1;align=center;verticalAlign=top;childLayout=stackLayout;horizontal=1;startSize=26;horizontalStack=0;resizeParent=1;resizeParentMax=0;resizeLast=0;collapsible=1;marginBottom=0;" parent="42" vertex="1">
                    <mxGeometry x="18.6" y="377" width="148.8" height="86" as="geometry"/>
                </mxCell>
                <mxCell id="73" value="+ field: type" style="text;strokeColor=none;fillColor=none;align=left;verticalAlign=top;spacingLeft=4;spacingRight=4;overflow=hidden;rotatable=0;points=[[0,0.5],[1,0.5]];portConstraint=eastwest;" parent="72" vertex="1">
                    <mxGeometry y="26" width="148.8" height="26" as="geometry"/>
                </mxCell>
                <mxCell id="74" value="" style="line;strokeWidth=1;fillColor=none;align=left;verticalAlign=middle;spacingTop=-1;spacingLeft=3;spacingRight=3;rotatable=0;labelPosition=right;points=[];portConstraint=eastwest;strokeColor=inherit;" parent="72" vertex="1">
                    <mxGeometry y="52" width="148.8" height="8" as="geometry"/>
                </mxCell>
                <mxCell id="75" value="+ method(type): type" style="text;strokeColor=none;fillColor=none;align=left;verticalAlign=top;spacingLeft=4;spacingRight=4;overflow=hidden;rotatable=0;points=[[0,0.5],[1,0.5]];portConstraint=eastwest;" parent="72" vertex="1">
                    <mxGeometry y="60" width="148.8" height="26" as="geometry"/>
                </mxCell>
                <mxCell id="76" value="Agent" style="swimlane;fontStyle=1;align=center;verticalAlign=top;childLayout=stackLayout;horizontal=1;startSize=26;horizontalStack=0;resizeParent=1;resizeParentMax=0;resizeLast=0;collapsible=1;marginBottom=0;" parent="42" vertex="1">
                    <mxGeometry x="27.900000000000002" y="50" width="148.8" height="86" as="geometry"/>
                </mxCell>
                <mxCell id="77" value="+ field: type" style="text;strokeColor=none;fillColor=none;align=left;verticalAlign=top;spacingLeft=4;spacingRight=4;overflow=hidden;rotatable=0;points=[[0,0.5],[1,0.5]];portConstraint=eastwest;" parent="76" vertex="1">
                    <mxGeometry y="26" width="148.8" height="26" as="geometry"/>
                </mxCell>
                <mxCell id="78" value="" style="line;strokeWidth=1;fillColor=none;align=left;verticalAlign=middle;spacingTop=-1;spacingLeft=3;spacingRight=3;rotatable=0;labelPosition=right;points=[];portConstraint=eastwest;strokeColor=inherit;" parent="76" vertex="1">
                    <mxGeometry y="52" width="148.8" height="8" as="geometry"/>
                </mxCell>
                <mxCell id="79" value="+ method(type): type" style="text;strokeColor=none;fillColor=none;align=left;verticalAlign=top;spacingLeft=4;spacingRight=4;overflow=hidden;rotatable=0;points=[[0,0.5],[1,0.5]];portConstraint=eastwest;" parent="76" vertex="1">
                    <mxGeometry y="60" width="148.8" height="26" as="geometry"/>
                </mxCell>
                <mxCell id="80" value="Company" style="swimlane;fontStyle=1;align=center;verticalAlign=top;childLayout=stackLayout;horizontal=1;startSize=26;horizontalStack=0;resizeParent=1;resizeParentMax=0;resizeLast=0;collapsible=1;marginBottom=0;" parent="42" vertex="1">
                    <mxGeometry x="223.20000000000002" y="377" width="148.8" height="86" as="geometry"/>
                </mxCell>
                <mxCell id="81" value="+ field: type" style="text;strokeColor=none;fillColor=none;align=left;verticalAlign=top;spacingLeft=4;spacingRight=4;overflow=hidden;rotatable=0;points=[[0,0.5],[1,0.5]];portConstraint=eastwest;" parent="80" vertex="1">
                    <mxGeometry y="26" width="148.8" height="26" as="geometry"/>
                </mxCell>
                <mxCell id="82" value="" style="line;strokeWidth=1;fillColor=none;align=left;verticalAlign=middle;spacingTop=-1;spacingLeft=3;spacingRight=3;rotatable=0;labelPosition=right;points=[];portConstraint=eastwest;strokeColor=inherit;" parent="80" vertex="1">
                    <mxGeometry y="52" width="148.8" height="8" as="geometry"/>
                </mxCell>
                <mxCell id="83" value="+ method(type): type" style="text;strokeColor=none;fillColor=none;align=left;verticalAlign=top;spacingLeft=4;spacingRight=4;overflow=hidden;rotatable=0;points=[[0,0.5],[1,0.5]];portConstraint=eastwest;" parent="80" vertex="1">
                    <mxGeometry y="60" width="148.8" height="26" as="geometry"/>
                </mxCell>
                <mxCell id="85" value="Use" style="endArrow=open;endSize=12;dashed=1;html=1;exitX=0;exitY=0.5;exitDx=0;exitDy=0;" parent="42" source="81" target="72" edge="1">
                    <mxGeometry width="160" relative="1" as="geometry">
                        <mxPoint x="474.3" y="510" as="sourcePoint"/>
                        <mxPoint x="623.1" y="510" as="targetPoint"/>
                    </mxGeometry>
                </mxCell>
                <mxCell id="86" value="FileAppender" style="swimlane;fontStyle=1;align=center;verticalAlign=top;childLayout=stackLayout;horizontal=1;startSize=26;horizontalStack=0;resizeParent=1;resizeParentMax=0;resizeLast=0;collapsible=1;marginBottom=0;" parent="42" vertex="1">
                    <mxGeometry x="520.8000000000001" y="360" width="148.8" height="86" as="geometry"/>
                </mxCell>
                <mxCell id="87" value="+ field: type" style="text;strokeColor=none;fillColor=none;align=left;verticalAlign=top;spacingLeft=4;spacingRight=4;overflow=hidden;rotatable=0;points=[[0,0.5],[1,0.5]];portConstraint=eastwest;" parent="86" vertex="1">
                    <mxGeometry y="26" width="148.8" height="26" as="geometry"/>
                </mxCell>
                <mxCell id="88" value="" style="line;strokeWidth=1;fillColor=none;align=left;verticalAlign=middle;spacingTop=-1;spacingLeft=3;spacingRight=3;rotatable=0;labelPosition=right;points=[];portConstraint=eastwest;strokeColor=inherit;" parent="86" vertex="1">
                    <mxGeometry y="52" width="148.8" height="8" as="geometry"/>
                </mxCell>
                <mxCell id="89" value="+ method(type): type" style="text;strokeColor=none;fillColor=none;align=left;verticalAlign=top;spacingLeft=4;spacingRight=4;overflow=hidden;rotatable=0;points=[[0,0.5],[1,0.5]];portConstraint=eastwest;" parent="86" vertex="1">
                    <mxGeometry y="60" width="148.8" height="26" as="geometry"/>
                </mxCell>
                <mxCell id="91" value="FileAppenderXML" style="swimlane;fontStyle=1;align=center;verticalAlign=top;childLayout=stackLayout;horizontal=1;startSize=26;horizontalStack=0;resizeParent=1;resizeParentMax=0;resizeLast=0;collapsible=1;marginBottom=0;" parent="42" vertex="1">
                    <mxGeometry x="613.8000000000001" y="530" width="148.8" height="86" as="geometry"/>
                </mxCell>
                <mxCell id="92" value="+ field: type" style="text;strokeColor=none;fillColor=none;align=left;verticalAlign=top;spacingLeft=4;spacingRight=4;overflow=hidden;rotatable=0;points=[[0,0.5],[1,0.5]];portConstraint=eastwest;" parent="91" vertex="1">
                    <mxGeometry y="26" width="148.8" height="26" as="geometry"/>
                </mxCell>
                <mxCell id="93" value="" style="line;strokeWidth=1;fillColor=none;align=left;verticalAlign=middle;spacingTop=-1;spacingLeft=3;spacingRight=3;rotatable=0;labelPosition=right;points=[];portConstraint=eastwest;strokeColor=inherit;" parent="91" vertex="1">
                    <mxGeometry y="52" width="148.8" height="8" as="geometry"/>
                </mxCell>
                <mxCell id="94" value="+ method(type): type" style="text;strokeColor=none;fillColor=none;align=left;verticalAlign=top;spacingLeft=4;spacingRight=4;overflow=hidden;rotatable=0;points=[[0,0.5],[1,0.5]];portConstraint=eastwest;" parent="91" vertex="1">
                    <mxGeometry y="60" width="148.8" height="26" as="geometry"/>
                </mxCell>
                <mxCell id="95" value="FileAppenderTXT" style="swimlane;fontStyle=1;align=center;verticalAlign=top;childLayout=stackLayout;horizontal=1;startSize=26;horizontalStack=0;resizeParent=1;resizeParentMax=0;resizeLast=0;collapsible=1;marginBottom=0;" parent="42" vertex="1">
                    <mxGeometry x="427.8" y="530" width="148.8" height="86" as="geometry"/>
                </mxCell>
                <mxCell id="96" value="+ field: type" style="text;strokeColor=none;fillColor=none;align=left;verticalAlign=top;spacingLeft=4;spacingRight=4;overflow=hidden;rotatable=0;points=[[0,0.5],[1,0.5]];portConstraint=eastwest;" parent="95" vertex="1">
                    <mxGeometry y="26" width="148.8" height="26" as="geometry"/>
                </mxCell>
                <mxCell id="97" value="" style="line;strokeWidth=1;fillColor=none;align=left;verticalAlign=middle;spacingTop=-1;spacingLeft=3;spacingRight=3;rotatable=0;labelPosition=right;points=[];portConstraint=eastwest;strokeColor=inherit;" parent="95" vertex="1">
                    <mxGeometry y="52" width="148.8" height="8" as="geometry"/>
                </mxCell>
                <mxCell id="98" value="+ method(type): type" style="text;strokeColor=none;fillColor=none;align=left;verticalAlign=top;spacingLeft=4;spacingRight=4;overflow=hidden;rotatable=0;points=[[0,0.5],[1,0.5]];portConstraint=eastwest;" parent="95" vertex="1">
                    <mxGeometry y="60" width="148.8" height="26" as="geometry"/>
                </mxCell>
                <mxCell id="102" value="Use" style="endArrow=open;endSize=12;dashed=1;html=1;exitX=1;exitY=0.5;exitDx=0;exitDy=0;" parent="42" source="77" target="47" edge="1">
                    <mxGeometry width="160" relative="1" as="geometry">
                        <mxPoint x="372.93" y="89" as="sourcePoint"/>
                        <mxPoint x="521.73" y="91.66666666666674" as="targetPoint"/>
                    </mxGeometry>
                </mxCell>
                <mxCell id="120" value="Extends" style="endArrow=block;endSize=16;endFill=0;html=1;exitX=0.5;exitY=0;exitDx=0;exitDy=0;entryX=0.322;entryY=1.136;entryDx=0;entryDy=0;entryPerimeter=0;" parent="42" source="95" target="89" edge="1">
                    <mxGeometry width="160" relative="1" as="geometry">
                        <mxPoint x="418.5" y="360" as="sourcePoint"/>
                        <mxPoint x="567.3000000000001" y="360" as="targetPoint"/>
                    </mxGeometry>
                </mxCell>
                <mxCell id="121" value="Extends" style="endArrow=block;endSize=16;endFill=0;html=1;exitX=0.5;exitY=0;exitDx=0;exitDy=0;entryX=0.729;entryY=1.136;entryDx=0;entryDy=0;entryPerimeter=0;" parent="42" source="91" target="89" edge="1">
                    <mxGeometry width="160" relative="1" as="geometry">
                        <mxPoint x="418.5" y="360" as="sourcePoint"/>
                        <mxPoint x="567.3000000000001" y="360" as="targetPoint"/>
                    </mxGeometry>
                </mxCell>
                <mxCell id="105" value="gui" style="shape=folder;fontStyle=1;tabWidth=110;tabHeight=30;tabPosition=left;html=1;boundedLbl=1;labelInHeader=1;container=1;collapsible=0;" parent="1" vertex="1">
                    <mxGeometry x="530" y="170" width="930" height="400" as="geometry"/>
                </mxCell>
                <mxCell id="106" value="" style="html=1;strokeColor=none;resizeWidth=1;resizeHeight=1;fillColor=none;part=1;connectable=0;allowArrows=0;deletable=0;" parent="105" vertex="1">
                    <mxGeometry width="930" height="280" relative="1" as="geometry">
                        <mxPoint y="30" as="offset"/>
                    </mxGeometry>
                </mxCell>
                <mxCell id="107" value="InputWindow" style="swimlane;fontStyle=1;align=center;verticalAlign=top;childLayout=stackLayout;horizontal=1;startSize=26;horizontalStack=0;resizeParent=1;resizeParentMax=0;resizeLast=0;collapsible=1;marginBottom=0;" parent="105" vertex="1">
                    <mxGeometry x="320" y="60" width="160" height="86" as="geometry"/>
                </mxCell>
                <mxCell id="108" value="+ field: type" style="text;strokeColor=none;fillColor=none;align=left;verticalAlign=top;spacingLeft=4;spacingRight=4;overflow=hidden;rotatable=0;points=[[0,0.5],[1,0.5]];portConstraint=eastwest;" parent="107" vertex="1">
                    <mxGeometry y="26" width="160" height="26" as="geometry"/>
                </mxCell>
                <mxCell id="109" value="" style="line;strokeWidth=1;fillColor=none;align=left;verticalAlign=middle;spacingTop=-1;spacingLeft=3;spacingRight=3;rotatable=0;labelPosition=right;points=[];portConstraint=eastwest;strokeColor=inherit;" parent="107" vertex="1">
                    <mxGeometry y="52" width="160" height="8" as="geometry"/>
                </mxCell>
                <mxCell id="110" value="+ method(type): type" style="text;strokeColor=none;fillColor=none;align=left;verticalAlign=top;spacingLeft=4;spacingRight=4;overflow=hidden;rotatable=0;points=[[0,0.5],[1,0.5]];portConstraint=eastwest;" parent="107" vertex="1">
                    <mxGeometry y="60" width="160" height="26" as="geometry"/>
                </mxCell>
                <mxCell id="111" value="ResultWindow" style="swimlane;fontStyle=1;align=center;verticalAlign=top;childLayout=stackLayout;horizontal=1;startSize=26;horizontalStack=0;resizeParent=1;resizeParentMax=0;resizeLast=0;collapsible=1;marginBottom=0;" parent="105" vertex="1">
                    <mxGeometry x="200" y="260" width="160" height="86" as="geometry"/>
                </mxCell>
                <mxCell id="112" value="+ field: type" style="text;strokeColor=none;fillColor=none;align=left;verticalAlign=top;spacingLeft=4;spacingRight=4;overflow=hidden;rotatable=0;points=[[0,0.5],[1,0.5]];portConstraint=eastwest;" parent="111" vertex="1">
                    <mxGeometry y="26" width="160" height="26" as="geometry"/>
                </mxCell>
                <mxCell id="113" value="" style="line;strokeWidth=1;fillColor=none;align=left;verticalAlign=middle;spacingTop=-1;spacingLeft=3;spacingRight=3;rotatable=0;labelPosition=right;points=[];portConstraint=eastwest;strokeColor=inherit;" parent="111" vertex="1">
                    <mxGeometry y="52" width="160" height="8" as="geometry"/>
                </mxCell>
                <mxCell id="114" value="+ method(type): type" style="text;strokeColor=none;fillColor=none;align=left;verticalAlign=top;spacingLeft=4;spacingRight=4;overflow=hidden;rotatable=0;points=[[0,0.5],[1,0.5]];portConstraint=eastwest;" parent="111" vertex="1">
                    <mxGeometry y="60" width="160" height="26" as="geometry"/>
                </mxCell>
                <mxCell id="115" value="SelectionWindow" style="swimlane;fontStyle=1;align=center;verticalAlign=top;childLayout=stackLayout;horizontal=1;startSize=26;horizontalStack=0;resizeParent=1;resizeParentMax=0;resizeLast=0;collapsible=1;marginBottom=0;" parent="105" vertex="1">
                    <mxGeometry x="440" y="260" width="160" height="86" as="geometry"/>
                </mxCell>
                <mxCell id="116" value="+ field: type" style="text;strokeColor=none;fillColor=none;align=left;verticalAlign=top;spacingLeft=4;spacingRight=4;overflow=hidden;rotatable=0;points=[[0,0.5],[1,0.5]];portConstraint=eastwest;" parent="115" vertex="1">
                    <mxGeometry y="26" width="160" height="26" as="geometry"/>
                </mxCell>
                <mxCell id="117" value="" style="line;strokeWidth=1;fillColor=none;align=left;verticalAlign=middle;spacingTop=-1;spacingLeft=3;spacingRight=3;rotatable=0;labelPosition=right;points=[];portConstraint=eastwest;strokeColor=inherit;" parent="115" vertex="1">
                    <mxGeometry y="52" width="160" height="8" as="geometry"/>
                </mxCell>
                <mxCell id="118" value="+ method(type): type" style="text;strokeColor=none;fillColor=none;align=left;verticalAlign=top;spacingLeft=4;spacingRight=4;overflow=hidden;rotatable=0;points=[[0,0.5],[1,0.5]];portConstraint=eastwest;" parent="115" vertex="1">
                    <mxGeometry y="60" width="160" height="26" as="geometry"/>
                </mxCell>
                <mxCell id="122" value="Use" style="endArrow=open;endSize=12;dashed=1;html=1;entryX=0.5;entryY=0;entryDx=0;entryDy=0;exitX=0.349;exitY=1.085;exitDx=0;exitDy=0;exitPerimeter=0;" parent="105" source="110" target="111" edge="1">
                    <mxGeometry width="160" relative="1" as="geometry">
                        <mxPoint x="240" y="180" as="sourcePoint"/>
                        <mxPoint x="400" y="180" as="targetPoint"/>
                    </mxGeometry>
                </mxCell>
                <mxCell id="124" value="Use" style="endArrow=open;endSize=12;dashed=1;html=1;entryX=0.5;entryY=0;entryDx=0;entryDy=0;exitX=0.534;exitY=1.085;exitDx=0;exitDy=0;exitPerimeter=0;" parent="105" source="110" target="115" edge="1">
                    <mxGeometry width="160" relative="1" as="geometry">
                        <mxPoint x="240" y="180" as="sourcePoint"/>
                        <mxPoint x="400" y="180" as="targetPoint"/>
                    </mxGeometry>
                </mxCell>
                <mxCell id="181" value="&lt;font style=&quot;font-size: 36px;&quot;&gt;Use&lt;/font&gt;" style="endArrow=open;endSize=12;dashed=1;html=1;exitX=0.5;exitY=1;exitDx=0;exitDy=0;exitPerimeter=0;entryX=0.467;entryY=0.045;entryDx=0;entryDy=0;entryPerimeter=0;" parent="1" source="105" target="42" edge="1">
                    <mxGeometry width="160" relative="1" as="geometry">
                        <mxPoint x="670" y="950" as="sourcePoint"/>
                        <mxPoint x="830" y="950" as="targetPoint"/>
                    </mxGeometry>
                </mxCell>
                <mxCell id="182" value="Use" style="endArrow=open;endSize=12;dashed=1;html=1;fontSize=36;entryX=0;entryY=0;entryDx=530;entryDy=215;entryPerimeter=0;exitX=0;exitY=0;exitDx=0;exitDy=215;exitPerimeter=0;" parent="1" source="105" target="20" edge="1">
                    <mxGeometry width="160" relative="1" as="geometry">
                        <mxPoint x="350" y="360" as="sourcePoint"/>
                        <mxPoint x="510" y="360" as="targetPoint"/>
                    </mxGeometry>
                </mxCell>
            </root>
        </mxGraphModel>
    </diagram>
</mxfile>